<svg class="svg inlined-svg" role="img" viewBox="0 0 26 26" fill="none" xmlns="http://www.w3.org/2000/svg">
    <path d="M5.23913 8.69565L3.41304 5.63043L5.63043 3.41304L8.69565 5.23913C9.28261 4.91304 9.93478 4.65217 10.587 4.45652L11.4348 1H14.5652L15.413 4.45652C16.0652 4.65217 16.7174 4.91304 17.3043 5.23913L20.3696 3.41304L22.587 5.63043L20.7609 8.69565C21.087 9.28261 21.3478 9.93478 21.5435 10.587L25 11.4348V14.5652L21.5435 15.413C21.3478 16.0652 21.087 16.7174 20.7609 17.3043L22.587 20.3696L20.3696 22.587L17.3043 20.7609C16.7174 21.087 16.0652 21.3478 15.413 21.5435L14.5652 25H11.4348L10.587 21.5435C9.93478 21.3478 9.28261 21.087 8.69565 20.7609L5.63043 22.587L3.41304 20.3696L5.23913 17.3043C4.91304 16.7174 4.65217 16.0652 4.45652 15.413L1 14.5652V11.4348L4.45652 10.587C4.65217 9.86957 4.91304 9.28261 5.23913 8.69565Z" stroke="#5E646C" stroke-miterlimit="10" stroke-linecap="round" stroke-linejoin="round"/>
    <path d="M12.9999 17.6957C15.5932 17.6957 17.6955 15.5933 17.6955 13C17.6955 10.4067 15.5932 8.30435 12.9999 8.30435C10.4065 8.30435 8.3042 10.4067 8.3042 13C8.3042 15.5933 10.4065 17.6957 12.9999 17.6957Z" stroke="#5E646C" stroke-miterlimit="10" stroke-linecap="round" stroke-linejoin="round"/>
</svg>
