<svg class="svg inlined-svg" role="img" viewBox="0 0 20 16" fill="none" xmlns="http://www.w3.org/2000/svg">
    <path d="M18.0217 14.75H1.97826C1.44022 14.75 1 14.3033 1 13.7574V2.24265C1 1.69669 1.44022 1.25 1.97826 1.25H18.0217C18.5598 1.25 19 1.69669 19 2.24265V13.7574C19 14.3033 18.5598 14.75 18.0217 14.75Z" stroke="white" stroke-miterlimit="10" stroke-linecap="round" stroke-linejoin="round"/>
    <path d="M15.8205 5.81618C16.6849 5.81618 17.3857 5.1051 17.3857 4.22794C17.3857 3.35079 16.6849 2.63971 15.8205 2.63971C14.956 2.63971 14.2552 3.35079 14.2552 4.22794C14.2552 5.1051 14.956 5.81618 15.8205 5.81618Z" stroke="white" stroke-miterlimit="10" stroke-linecap="round" stroke-linejoin="round"/>
    <path d="M1 9.8364L5.20652 4.22794" stroke="white" stroke-miterlimit="10" stroke-linecap="round" stroke-linejoin="round"/>
    <path d="M14.3042 14.75L5.20642 4.22794" stroke="white" stroke-miterlimit="10" stroke-linecap="round" stroke-linejoin="round"/>
    <path d="M9.46204 8.69485L11.5653 6.4614" stroke="white" stroke-miterlimit="10" stroke-linecap="round" stroke-linejoin="round"/>
    <path d="M17.9239 14.3529L11.5652 6.4614" stroke="white" stroke-miterlimit="10" stroke-linecap="round" stroke-linejoin="round"/>
</svg>
