<svg class="svg inlined-svg" role="img" viewBox="0 0 103 48" fill="none" xmlns="http://www.w3.org/2000/svg">
    <g clip-path="url(#clip0)">
        <path d="M52.0102 24.2978C50.7295 22.7097 48.9685 21.9156 46.7672 21.9156C44.1857 21.9156 42.0444 23.1861 41.0238 25.2903H40.9638L41.0639 24.0199V22.2928H38.9226V46.5112H41.1439V37.2407C41.1439 36.6849 41.1039 36.2084 41.0438 35.8114H41.1039C42.1845 37.8561 44.2257 39.067 46.547 39.067C48.7083 39.067 50.4893 38.2928 51.8501 36.7246C53.2309 35.1365 53.9113 33.0521 53.9113 30.4715C53.9514 27.8908 53.291 25.8462 52.0102 24.2978ZM50.1491 35.3151C49.1286 36.4864 47.8478 37.062 46.3469 37.062C44.746 37.062 43.4653 36.407 42.5047 35.1166C41.5441 33.8065 41.1039 32.2779 41.1039 30.531C41.1039 26.1439 43.4252 23.9206 46.447 23.9206C47.9879 23.9206 49.2686 24.536 50.2092 25.7469C51.1898 26.9578 51.69 28.5062 51.69 30.4913C51.69 32.5161 51.1497 34.1042 50.1491 35.3151Z" fill="white"/>
        <path d="M60.8955 32.4963V24.2978H65.0579V22.4318H60.8955V17.7866H58.6942V22.4318H56.4929V24.2779H58.6542V32.6948C58.6542 35.9901 60.055 37.5186 61.5759 38.2332C62.7166 38.7295 63.517 38.7891 64.4376 38.7891C64.7978 38.7891 65.1179 38.7494 65.3981 38.7295V36.7444C65.198 36.7841 64.9378 36.804 64.6377 36.804C63.3569 36.804 60.8955 36.268 60.8955 32.4963Z" fill="white"/>
        <path d="M75.6241 21.9156C73.3028 21.9156 71.3616 22.6898 69.7807 24.2581C68.2398 25.8263 67.4594 27.9107 67.4594 30.5112C67.4594 33.0124 68.2798 35.0571 69.9208 36.665C71.6018 38.2531 73.663 39.067 76.1244 39.067C78.3257 39.067 80.6871 38.1936 82.2279 36.7841L81.2074 35.0968C79.7665 36.407 78.0855 37.0422 76.1844 37.0422C74.4234 37.0422 72.9025 36.4665 71.6818 35.3152C70.4611 34.1836 69.8207 32.5757 69.7807 30.5707H82.4481C82.4881 30.0745 82.5081 29.7171 82.5081 29.4591C82.5081 27.3152 81.9078 25.5286 80.7071 24.0993C79.4864 22.6303 77.8254 21.9156 75.6241 21.9156ZM69.8808 28.804C70.4011 25.5881 72.7024 23.7221 75.5641 23.7221C78.1856 23.7221 80.1267 25.5484 80.2468 28.804H69.8808Z" fill="white"/>
        <path d="M100.439 24.3573C98.7575 22.7295 96.6963 21.9156 94.2749 21.9156C91.8535 21.9156 89.7723 22.7295 88.1113 24.3573C86.4303 25.9851 85.5898 28.0099 85.5898 30.4119C85.5898 32.8536 86.4503 34.938 88.1113 36.5856C89.7923 38.2531 91.8535 39.067 94.2749 39.067C96.6963 39.067 98.7775 38.2531 100.439 36.5856C102.14 34.9181 103 32.8536 103 30.4119C103 27.9901 102.16 25.9851 100.439 24.3573ZM98.8376 35.1563C97.5968 36.4268 96.076 37.0422 94.2749 37.0422C92.4739 37.0422 90.953 36.4268 89.7122 35.1563C88.4915 33.8859 87.8712 32.3176 87.8712 30.4119C87.8712 28.5658 88.4915 27.0372 89.7122 25.7866C90.953 24.5161 92.4739 23.9008 94.2749 23.9008C96.076 23.9008 97.5968 24.5161 98.8376 25.7866C100.078 27.0174 100.699 28.5459 100.699 30.4119C100.719 32.3176 100.078 33.8859 98.8376 35.1563Z" fill="white"/>
        <path d="M46.0068 42.8784C45.4665 42.8784 45.0062 43.1563 44.7861 43.5931H44.7661L44.7861 43.2953V41.5484H44.3058V46.5112H44.7661V46.1539C44.7661 46.0348 44.7661 45.9355 44.746 45.8561H44.7661C44.9862 46.2928 45.4465 46.5906 45.9467 46.5906C46.427 46.5906 46.8072 46.4119 47.1074 46.0745C47.4076 45.737 47.5477 45.2804 47.5477 44.7246C47.5477 44.1688 47.4076 43.732 47.1274 43.3747C46.8673 43.0571 46.4871 42.8784 46.0068 42.8784ZM46.7472 45.7965C46.5271 46.0546 46.2469 46.1737 45.9267 46.1737C45.5665 46.1737 45.2864 46.0348 45.0862 45.7568C44.8861 45.4789 44.7861 45.1415 44.7861 44.7643C44.7861 43.8114 45.2864 43.335 45.9467 43.335C46.2869 43.335 46.5671 43.474 46.7672 43.732C46.9874 43.9901 47.0874 44.3276 47.0874 44.7643C47.0674 45.1812 46.9673 45.5186 46.7472 45.7965Z" fill="white"/>
        <path d="M49.829 45.5583C49.7889 45.6774 49.7489 45.7965 49.7089 45.9355H49.6889L49.5488 45.5583L48.5082 42.9777H47.9679L49.4487 46.4913L49.2286 47.0074C49.0485 47.4045 48.8284 47.5831 48.5482 47.5831C48.4081 47.5831 48.248 47.5236 48.128 47.4243L47.9479 47.8015L48.0279 47.861C48.128 47.9206 48.3681 48.0198 48.5882 48.0198C49.0485 48.0198 49.4287 47.7419 49.6088 47.2854L51.3699 42.9975H50.8496L49.829 45.5583Z" fill="white"/>
        <path d="M54.0914 42.7792C54.0914 42.263 54.5517 41.9454 55.132 41.9454C55.5323 41.9454 55.9525 42.1241 56.2327 42.3623L56.4728 41.9454C56.1326 41.6278 55.6924 41.469 55.152 41.469C54.7118 41.469 54.3316 41.5881 54.0314 41.8263C53.7312 42.0645 53.5911 42.3821 53.5911 42.7792C53.5911 44.3077 56.0726 44.0298 56.0726 45.2606C56.0726 45.7767 55.6523 46.1142 55.072 46.1142C54.5917 46.1142 54.1114 45.8958 53.7712 45.5782L53.4711 45.9553C53.8913 46.3722 54.4316 46.5906 55.032 46.5906C55.4922 46.5906 55.8725 46.4715 56.1526 46.2134C56.4328 45.9553 56.5729 45.6377 56.5729 45.2407C56.5729 43.6526 54.0914 43.9702 54.0914 42.7792Z" fill="white"/>
        <path d="M58.0538 45.1811V43.3945H58.9543V42.9975H58.0538V41.9851H57.5735V42.9975H57.0933V43.3945H57.5535V45.2208C57.5535 45.9355 57.8537 46.273 58.1939 46.4119C58.434 46.5112 58.6141 46.531 58.8143 46.531C58.8943 46.531 58.9543 46.531 59.0144 46.5112V46.0744C58.9743 46.0744 58.9143 46.0943 58.8543 46.0943C58.5941 46.1141 58.0538 45.995 58.0538 45.1811Z" fill="white"/>
        <path d="M60.9755 42.8784C60.4952 42.8784 59.9949 43.0372 59.7147 43.2754L59.9349 43.6328C60.2551 43.4144 60.5953 43.2953 60.9555 43.2953C61.5358 43.2953 61.836 43.5931 61.836 44.2084V44.3077H61.6158C60.175 44.3077 59.4346 44.7246 59.4346 45.5385C59.4346 45.8561 59.5546 46.1142 59.7948 46.2928C60.0349 46.4715 60.3151 46.5707 60.6553 46.5707C61.1956 46.5707 61.6559 46.2333 61.856 45.7767H61.876L61.856 46.0745V46.4913H62.3163V44.2283C62.3163 43.3548 61.836 42.8784 60.9755 42.8784ZM61.816 44.8635C61.816 45.201 61.7159 45.4988 61.5158 45.7767C61.3157 46.0546 61.0555 46.1936 60.7353 46.1936C60.235 46.1936 59.9349 45.8759 59.9349 45.5186C59.9549 45.0422 60.2951 44.8437 60.7954 44.7643C61.1556 44.7047 61.3157 44.7047 61.6359 44.7047H61.836V44.8635H61.816Z" fill="white"/>
        <path d="M63.8773 43.9107L63.8973 43.6328V42.9777H63.417V46.531H63.8973V45.0224C63.8973 44.5062 64.0173 44.0298 64.3976 43.6923C64.5777 43.5137 64.7978 43.4343 65.0379 43.4343C65.138 43.4343 65.178 43.4343 65.218 43.4541V42.9777C65.158 42.9578 65.098 42.9578 65.0179 42.9578C64.4976 42.938 64.0774 43.335 63.8773 43.9107Z" fill="white"/>
        <path d="M67.8395 43.8908L69.3404 41.5484H68.7801L67.4393 43.7122H66.5988V41.5484H66.0985V46.5112H66.5988V44.1489H67.4393L68.8601 46.5112H69.4404L67.8395 43.9107V43.8908Z" fill="white"/>
        <path d="M71.6217 42.8784C71.1014 42.8784 70.6411 43.0571 70.2809 43.4144C69.9207 43.7717 69.7406 44.2084 69.7406 44.7246C69.7406 45.2606 69.9207 45.6973 70.2809 46.0546C70.6411 46.4119 71.0814 46.5906 71.6217 46.5906C72.142 46.5906 72.6023 46.4119 72.9625 46.0546C73.3227 45.6973 73.5228 45.2407 73.5228 44.7246C73.5228 44.2084 73.3427 43.7717 72.9625 43.4144C72.6023 43.0571 72.142 42.8784 71.6217 42.8784ZM72.6023 45.7568C72.3421 46.0347 72.0019 46.1737 71.6217 46.1737C71.2415 46.1737 70.9013 46.0347 70.6411 45.7568C70.381 45.4789 70.2409 45.1414 70.2409 44.7246C70.2409 44.3275 70.381 43.9901 70.6411 43.732C70.9013 43.4541 71.2415 43.3151 71.6217 43.3151C72.0019 43.3151 72.3421 43.4541 72.6023 43.732C72.8624 43.9901 73.0025 44.3275 73.0025 44.7246C73.0225 45.1414 72.8824 45.4789 72.6023 45.7568Z" fill="white"/>
        <path d="M20.5119 16.4566C20.8521 16.139 21.3124 16 21.8527 16.2184C21.9328 16.2581 22.0328 16.2382 22.1129 16.1787C22.2129 16.0794 22.2129 15.9405 22.1329 15.8412C21.8927 15.5633 21.5125 15.3648 21.0923 15.3251C20.672 15.2854 20.2518 15.4045 19.8916 15.603C19.5314 15.8015 19.2312 16.0993 19.0111 16.4566C18.891 16.6353 18.8109 16.8338 18.7509 17.0521C18.6909 17.2705 18.6709 17.5087 18.7109 17.7668C18.7509 18.0248 18.851 18.2829 19.0111 18.5013C19.1712 18.7196 19.3713 18.8784 19.5714 18.9975C19.7715 19.1166 20.0116 19.2159 20.2718 19.2556C20.5119 19.2953 20.7721 19.2755 21.0122 19.2358C21.4725 19.1365 21.8327 18.9181 22.1529 18.6799C22.4531 18.4417 22.7132 18.1638 22.9333 17.8859C23.7738 16.8139 24.2741 15.5831 24.5543 14.3127C24.2341 13.8561 23.7538 13.3797 23.2535 13.0025C23.2335 13.2804 23.1935 13.5583 23.1335 13.8362C23.0334 14.4119 22.8533 14.9678 22.6332 15.5236C22.413 16.0596 22.1329 16.5757 21.7927 17.0124C21.6326 17.2308 21.4325 17.4293 21.2524 17.5881C21.0723 17.7469 20.8721 17.8462 20.692 17.8859C20.5319 17.9256 20.4119 17.9057 20.2718 17.8263C20.1117 17.7271 20.0717 17.6675 20.0317 17.5683C19.9916 17.4492 20.0116 17.2506 20.1117 17.0521C20.1917 16.8139 20.3318 16.6154 20.5119 16.4566Z" fill="white"/>
        <path d="M24.134 9.86601C21.9928 8.8933 19.6715 8.49628 17.3101 8.87345C12.7474 9.62779 9.20536 13.1811 7.30425 17.2109C7.02409 17.8065 6.78395 18.4218 6.56382 19.0571C6.50378 19.196 6.46376 19.3548 6.42374 19.5137C6.38371 19.6923 6.40372 19.8511 6.40372 20.0298C6.42374 20.3275 6.44375 20.6055 6.48377 20.9032C6.62385 21.8958 6.884 22.8685 7.30425 23.7816C7.70448 19.5931 9.60559 15.206 13.1877 12.7643C15.0688 11.4938 17.3301 10.9181 19.5914 11.2953C21.2324 11.5732 22.8533 12.3672 24.134 13.3995C25.755 14.7097 26.3153 16.794 26.3553 18.799C26.4154 21.0025 25.8751 23.206 24.8144 25.1514C23.8539 26.8983 22.4531 28.4467 20.7121 29.4392C18.831 30.5112 16.6497 30.8486 14.5285 30.4119C10.1659 29.5186 6.84398 25.7469 6.3637 21.3995C5.80337 16.4169 7.46434 13.0422 9.90576 10.4814C12.1871 8.07941 15.7292 6.23325 19.1311 7.04715C20.0517 7.26551 20.9322 7.70224 21.6326 8.31762C21.8127 8.47643 22.1529 8.8536 22.1529 8.8536C22.1529 8.8536 23.7938 9.34988 24.2541 9.52854C23.2535 7.04715 20.672 5.59802 18.0505 5.45906C15.2889 5.30025 12.6073 6.43176 10.4461 8.07941C6.08354 11.3747 3.80221 17.0521 4.44258 22.4318C4.72274 24.7146 5.52321 26.938 6.90402 28.7841C8.50495 30.928 10.6462 32.5955 13.1877 33.4888C15.8692 34.4417 18.8109 34.402 21.4725 33.3697C23.8339 32.4566 25.835 30.8089 27.3159 28.7841C28.8168 26.7196 29.7773 24.2978 30.1175 21.7767C30.4577 19.1563 30.1976 16.2978 28.8968 13.9553C28.1164 12.5062 26.7756 11.0571 24.134 9.86601Z" fill="white"/>
        <path d="M30.1962 6.03573C27.7548 3.09777 24.1927 0.973698 20.4105 0.259058C16.5683 -0.455582 12.586 0.358313 9.30404 2.46253C6.26227 4.40794 3.90089 7.3062 2.33998 10.5419C0.598967 14.0953 -0.161476 18.1052 0.018629 22.0357C0.198734 25.8074 1.23934 29.6387 3.4006 32.795C4.44121 34.3037 5.76197 35.6139 7.30287 36.6065C8.08333 37.1027 8.92382 37.5196 9.80433 37.8174C10.2446 37.9762 10.7049 38.0953 11.1651 38.2144C11.4053 38.2739 11.6454 38.3136 11.8855 38.3534C12.1257 38.3931 12.3858 38.3931 12.606 38.4526C12.8261 38.5122 13.0462 38.6511 13.2463 38.7305C13.4665 38.8298 13.7066 38.9092 13.9267 38.9886C14.407 39.1474 14.8873 39.2864 15.3676 39.4055C16.3281 39.6238 17.2887 39.7429 18.2693 39.7628C20.2704 39.8025 22.2316 39.3856 24.0326 38.5519C27.4746 36.9638 30.2162 34.2243 31.9973 30.9092C33.8183 27.5345 34.6788 23.6437 34.6988 19.8323C34.6988 18.8199 34.6588 17.8273 34.5387 16.8347C34.1385 12.9241 32.7377 9.0928 30.1962 6.03573ZM31.6571 22.3931C31.597 23.0481 31.517 23.6834 31.3969 24.3186C30.9366 26.8596 30.0361 29.3608 28.5953 31.5047C27.1344 33.6883 25.1132 35.4352 22.7319 36.5866C18.1892 38.7702 11.9856 37.4005 9.20398 33.0928C8.88379 32.5767 8.60363 32.0407 8.36349 31.4849C8.32347 31.3658 8.22341 31.1275 8.22341 31.1275C8.22341 31.1275 6.16221 28.7653 5.58187 27.0978C5.78199 30.1945 6.64249 32.9935 8.52358 35.2764C9.12393 36.0109 9.82434 36.666 10.5848 37.2218C5.92207 35.4948 3.26052 30.929 2.38 26.264C1.47948 21.4799 2.23992 16.2988 4.58129 12.0109C6.76256 8.02085 10.4247 4.70571 15.0074 3.85211C19.7301 2.97866 24.673 5.02333 27.7548 8.61638C30.9967 12.3881 32.0973 17.5692 31.6571 22.3931Z" fill="white"/>
    </g>
    <defs>
        <clipPath id="clip0">
            <rect width="103" height="48" fill="white"/>
        </clipPath>
    </defs>
</svg>
