<svg class="svg inlined-svg" role="img" viewBox="0 0 78 106" fill="none" xmlns="http://www.w3.org/2000/svg">
    <path d="M1.41659 104.562L76.5833 104.562L76.5833 1.43716L1.41659 1.43716L1.41659 104.562Z" stroke="#5E646C" stroke-width="3" stroke-miterlimit="10"/>
    <path d="M18.5 70.1875C18.5 58.8438 27.725 49.5625 39 49.5625C50.275 49.5625 59.5 58.8438 59.5 70.1875C59.5 81.5312 50.275 90.8125 39 90.8125C27.725 90.8125 18.5 81.5312 18.5 70.1875Z" stroke="#5E646C" stroke-width="3" stroke-miterlimit="10"/>
    <path d="M39 35.8125C44.6609 35.8125 49.25 31.1954 49.25 25.5C49.25 19.8046 44.6609 15.1875 39 15.1875C33.3391 15.1875 28.75 19.8046 28.75 25.5C28.75 31.1954 33.3391 35.8125 39 35.8125Z" stroke="#5E646C" stroke-width="3" stroke-miterlimit="10"/>
    <path d="M39 77.0625C42.7739 77.0625 45.8333 73.9845 45.8333 70.1875C45.8333 66.3905 42.7739 63.3125 39 63.3125C35.226 63.3125 32.1666 66.3905 32.1666 70.1875C32.1666 73.9845 35.226 77.0625 39 77.0625Z" stroke="#5E646C" stroke-width="3" stroke-miterlimit="10"/>
</svg>
