<svg class="svg inlined-svg" role="img" viewBox="0 0 20 15" fill="none" xmlns="http://www.w3.org/2000/svg">
    <path d="M12.7389 7.35291L8.04333 4.17646V11.3235L12.7389 7.35291Z" stroke="white" stroke-miterlimit="10" stroke-linecap="round" stroke-linejoin="round"/>
    <path d="M18.5107 14.4999H1.48913C1.19565 14.4999 1 14.3014 1 14.0036V1.49632C1 1.19853 1.19565 1 1.48913 1H18.5107C18.8042 1 18.9998 1.19853 18.9998 1.49632V14.0036C18.9998 14.2518 18.7553 14.4999 18.5107 14.4999Z" stroke="white" stroke-miterlimit="10" stroke-linecap="round" stroke-linejoin="round"/>
    <path d="M4.13038 3.38234H3.34778V4.17645H4.13038V3.38234Z" stroke="white" stroke-miterlimit="10" stroke-linecap="round" stroke-linejoin="round"/>
    <path d="M4.13038 7.35291H3.34778V8.14702H4.13038V7.35291Z" stroke="white" stroke-miterlimit="10" stroke-linecap="round" stroke-linejoin="round"/>
    <path d="M4.13038 11.3235H3.34778V12.1176H4.13038V11.3235Z" stroke="white" stroke-miterlimit="10" stroke-linecap="round" stroke-linejoin="round"/>
    <path d="M16.6521 3.38234H15.8695V4.17645H16.6521V3.38234Z" stroke="white" stroke-miterlimit="10" stroke-linecap="round" stroke-linejoin="round"/>
    <path d="M16.6521 7.35291H15.8695V8.14702H16.6521V7.35291Z" stroke="white" stroke-miterlimit="10" stroke-linecap="round" stroke-linejoin="round"/>
    <path d="M16.6521 11.3235H15.8695V12.1176H16.6521V11.3235Z" stroke="white" stroke-miterlimit="10" stroke-linecap="round" stroke-linejoin="round"/>
</svg>
